# xmcd
#
# Track frame offsets:
#	150
#	19850
#	37711
#	53879
#	71260
#	84775
#	100794
#	120514
#	132589
#	153163
#	169903
#	188778
#	203964
#	221709
#	240590
#	259436
#
# Disc length: 3678 seconds
#
# Revision: 5
# Processed by: cddbd v1.5.2PL0 Copyright (c) Steve Scherf et al.
# Submitted via: dBpowerAMP V4.0
#
DISCID=d50e5c10
DTITLE=Pereza - Aproximaciones
DYEAR=2007
DGENRE=
TTITLE0=Aproximación
TTITLE1=Frágiles
TTITLE2=Estrella Polar
TTITLE3=Por mi Tripa
TTITLE4=Dimelo
TTITLE5=Tristeza
TTITLE6=Huracán
TTITLE7=Talibán
TTITLE8=Dos Gotas
TTITLE9=Beatles
TTITLE10=Margot
TTITLE11=Grupis
TTITLE12=Ella Tiene un Don
TTITLE13=Yo Nací para Estar en un Conjunto
TTITLE14=Superhermanas
TTITLE15=Por mi Tripa (Version Alternativa)
EXTD=
EXTT0=
EXTT1=
EXTT2=
EXTT3=
EXTT4=
EXTT5=
EXTT6=
EXTT7=
EXTT8=
EXTT9=
EXTT10=
EXTT11=
EXTT12=
EXTT13=
EXTT14=
EXTT15=
PLAYORDER=
